<?xml version="1.0" encoding="utf-8"?>
<!-- Generator: Adobe Illustrator 25.0.0, SVG Export Plug-In . SVG Version: 6.00 Build 0)  -->
<svg version="1.1" id="Capa_1" xmlns="http://www.w3.org/2000/svg" xmlns:xlink="http://www.w3.org/1999/xlink" x="0px" y="0px"
	 viewBox="0 0 1920 1080" style="enable-background:new 0 0 1920 1080;" xml:space="preserve">
<style type="text/css">
	.st0{display:none;}
	.st1{display:inline;fill:#FFFFFF;}
	.st2{display:inline;}
	.st3{font-family:'TimesNewRomanPSMT';}
	.st4{font-size:51px;}
	.st5{fill:none;}
	.st6{fill:#8B0003;}
	.st7{fill:none;stroke:#000000;stroke-width:15;stroke-linejoin:bevel;stroke-miterlimit:10;}
	.st8{fill:none;stroke:#000000;stroke-width:3;stroke-linejoin:bevel;stroke-miterlimit:10;}
	.st9{font-size:32px;}
	.st10{opacity:0.24;fill:#29ABE2;}
	.st11{font-size:30px;}
</style>
<g class="st0">
	<rect x="0.5" y="0.5" class="st1" width="1919" height="1079"/>
	<path class="st2" d="M1919,1v1078H1V1H1919 M1920,0H0v1080h1920V0L1920,0z"/>
</g>
<text transform="matrix(1 0 0 1 663 64)" class="st3 st4">SERVICIO DE CARROZAS</text>
<g>
	<polygon class="st5" points="1841.3,71.84 1838.37,77.16 1841.3,83 	"/>
	<polygon class="st5" points="1803.32,97.48 1808.84,87.41 1797.71,87.41 	"/>
	<polygon class="st5" points="1755.1,99.5 1762.47,85.15 1755.1,71.79 	"/>
	<polygon class="st5" points="1797.66,62.54 1791.01,75.39 1794.46,81.59 1807.27,81.59 	"/>
	<path class="st5" d="M1819.76,122.1c4.87-0.2,6.26-0.85,6.28-0.85c0,0,0,0,0,0c0,0,0.01-0.01,0.01-0.01
		c-0.09-0.8-0.59-3.06-3.11-8.06l-2.11-4.18l-7.36,13.35L1819.76,122.1z"/>
	<path d="M1848.05,46.03v50.4l6.1,12.12c4.18,8.3,6.78,10.75,7.71,11.42c1.05,0.76,2.5,1.3,4.27,1.66
		c-0.23-1.69-0.34-3.69-0.34-6.02V47.56c0-5.84,0.68-9.58,2.03-11.21c2.21-2.66,6-3.99,11.35-3.99h4.34v-2.84h-35.45l-17.55,32.01
		l4.3,8.55L1848.05,46.03z"/>
	<path d="M1748.35,112.37V46.03l17.72,32.11l9.1-17.72l-17.23-30.91h-35.45v2.84c5.11,0,8.82,0.5,11.13,1.5
		c2.31,1,3.89,2.24,4.75,3.73c1.23,2.05,1.85,5.38,1.85,9.99v68.05c0,2.2-0.1,4.1-0.29,5.71c1.48-0.37,2.11-0.66,2.26-0.74
		C1743.28,119.71,1745.35,117.53,1748.35,112.37z"/>
	<polygon points="1816.27,73.86 1803.28,48.11 1800.47,53.53 1813.38,79.12 	"/>
	<path d="M1757.12,109.94c-0.69,1.35-1.36,2.59-2.02,3.78v1.89c0,5.65,0.71,7.71,0.95,8.24c1,0.74,2.96,1.15,5.6,1.15h1.82
		c-1.31-1.07-2-2.27-2-3.62c0-2,1.04-5.02,3.14-9.06l3.9-7.55l2.31-4.51l-4.52-8.19L1757.12,109.94z"/>
	<path d="M1840.42,123.57c0.17-0.36,0.88-2.25,0.88-7.95V97.63l-6.78-13.48l-2.99,5.43l3.17,6.44h-6.72l-3.3,5.99l1.36,2.77
		l3.08,6.09c2.46,4.87,3.69,8.42,3.69,10.68c0,1.31-0.55,2.46-1.6,3.47h3.54C1836.75,125,1839.32,124.76,1840.42,123.57z"/>
	<path d="M1820.08,127.91v2.84h3.5v-3.1C1822.51,127.77,1821.35,127.86,1820.08,127.91z"/>
	<path d="M1775.95,130.75v-2.84c-1.12-0.07-2.15-0.15-3.13-0.25v3.09H1775.95z"/>
	<polygon points="1826.36,79.27 1827.97,82.47 1830.96,77.06 1826.66,68.52 1823.68,73.96 	"/>
	<path d="M1848.05,111.04v4.57c0,5.84-0.68,9.58-2.03,11.21c-2.01,2.49-5.48,3.77-10.29,3.93h33.74v-2.36
		c-0.26-0.18-0.54-0.36-0.78-0.56c-4.72-0.33-8.47-1.45-11.18-3.42C1854.68,122.36,1851.52,117.9,1848.05,111.04z"/>
	<path d="M1748.88,122.84c-0.75,0.82-1.48,1.52-2.19,2.08c-1.48,1.18-4.71,2.14-9.6,2.9c-0.19,0.16-0.35,0.35-0.56,0.5v2.44h24
		c-4.33-0.16-7.59-1.18-9.69-3.16C1749.94,126.73,1749.29,125.13,1748.88,122.84z"/>
	<polygon points="1820.17,81.59 1819.85,80.95 1819.5,81.59 	"/>
	<polygon points="1824.08,89.53 1824.13,89.45 1820.17,81.6 	"/>
	<polygon points="1773.44,91.48 1775.33,87.83 1782.61,73.76 1779.02,67.31 1769.9,85.06 	"/>
	<polygon points="1821.89,70.42 1824.88,64.97 1823.09,61.42 1820.1,66.87 	"/>
	<path d="M1756.05,123.86c-0.24-0.53-0.95-2.59-0.95-8.24v-1.89c-1.12,2-2.21,3.79-3.26,5.33c0.33,5.24,1.37,6.47,1.51,6.6
		c1.59,1.5,4.38,2.27,8.3,2.27h7.8v2.84h3.37v-3.09c-4.27-0.42-7.17-1.11-8.64-2.09c-0.27-0.18-0.49-0.38-0.72-0.57h-1.82
		C1759.01,125,1757.04,124.6,1756.05,123.86z"/>
	<polygon points="1786.22,66.79 1782.61,60.32 1780.81,63.82 1784.41,70.28 	"/>
	<polygon points="1824.41,96.02 1824.25,96.02 1822.92,98.42 1824.68,102 1827.98,96.02 	"/>
	<polygon points="1814.63,81.59 1815.76,81.59 1818.06,77.41 1816.27,73.86 1813.38,79.12 	"/>
	<path d="M1834.76,127.91c4.22,0,7-0.9,8.5-2.75c0.25-0.31,1.42-2.1,1.42-9.55v-11.27l-3.38-6.71v17.99c0,5.71-0.71,7.59-0.88,7.95
		c-1.1,1.19-3.67,1.44-5.67,1.44h-3.54c-0.3,0.29-0.64,0.57-1.03,0.83c-1.31,0.88-3.51,1.48-6.61,1.82v3.1h3.38v-2.84H1834.76z"/>
	<polygon points="1771.09,96.02 1771.63,94.97 1768.1,88.57 1766.29,92.08 1770.81,100.26 1772.61,96.76 1772.21,96.02 	"/>
	<polygon points="1829.76,86.01 1830.46,87.41 1830.7,87.88 1831.53,89.57 1834.52,84.15 1832.74,80.6 	"/>
	<path d="M1761.64,127.91c-3.92,0-6.71-0.77-8.3-2.27c-0.14-0.13-1.18-1.36-1.51-6.6c-1.02,1.48-2,2.74-2.96,3.79
		c0.41,2.29,1.06,3.89,1.97,4.76c2.09,1.98,5.36,3,9.69,3.16h8.92v-2.84H1761.64z"/>
	<polygon points="1821.73,96.02 1822.92,98.42 1824.25,96.02 	"/>
	<polygon points="1772.61,96.76 1773,96.02 1772.21,96.02 	"/>
	<polygon points="1819.5,81.59 1819.85,80.95 1818.06,77.41 1815.76,81.59 	"/>
	<path d="M1846.02,126.83c1.35-1.64,2.03-5.38,2.03-11.21v-4.57c-0.03-0.06-0.06-0.12-0.09-0.18l-3.28-6.52v11.27
		c0,7.45-1.17,9.24-1.42,9.55c-1.5,1.85-4.27,2.75-8.5,2.75h-7.8v2.84h8.78C1840.54,130.59,1844.01,129.31,1846.02,126.83z"/>
	<polygon points="1824.41,90.2 1824.51,90.2 1824.13,89.45 1824.08,89.53 	"/>
	<path d="M1736.53,127.91v0.4c0.21-0.15,0.37-0.34,0.56-0.5C1736.89,127.85,1736.74,127.88,1736.53,127.91z"/>
	<polygon points="1768.1,88.57 1771.63,94.97 1773.44,91.48 1769.9,85.06 	"/>
	<polygon points="1784.41,70.28 1780.81,63.82 1779.02,67.31 1782.61,73.76 	"/>
	<polygon points="1829.76,86.01 1832.74,80.6 1830.96,77.06 1827.97,82.47 	"/>
	<path d="M1869.47,127.91c-0.27-0.01-0.51-0.06-0.78-0.08c0.24,0.2,0.51,0.38,0.78,0.56V127.91z"/>
	<polygon points="1823.68,73.96 1826.66,68.52 1824.88,64.97 1821.89,70.42 	"/>
	<polygon points="1834.7,96.02 1831.53,89.57 1827.98,96.02 	"/>
	<polygon points="1797.74,48.11 1800.47,53.53 1803.28,48.11 1816.27,73.86 1820.1,66.87 1809.47,45.79 1803.36,33.68 
		1797.11,45.74 1786.22,66.79 1787.18,68.51 	"/>
	<polygon points="1775.33,87.83 1773.44,91.48 1774.42,93.25 1775.98,90.2 1775.95,90.2 1783.57,75.48 1782.61,73.76 	"/>
	<polygon points="1820.17,81.59 1819.5,81.59 1816.96,86.22 1818.97,90.2 1818.87,90.2 1821.16,94.84 1824.08,89.53 1820.17,81.6 	
		"/>
	<polygon points="1820.17,81.59 1820.17,81.6 1824.13,89.45 1827.97,82.47 1826.36,79.27 1823.68,73.96 1819.85,80.95 	"/>
	<polygon points="1787.18,68.51 1786.22,66.79 1784.41,70.28 1785.37,72 	"/>
	<polygon points="1818.06,77.41 1821.89,70.42 1820.1,66.87 1816.27,73.86 	"/>
	<polygon points="1830.46,87.41 1829.76,86.01 1824.25,96.02 1824.41,96.02 1827.98,96.02 1831.53,89.57 1830.7,87.88 	"/>
	<polygon points="1814.63,81.59 1815.17,82.67 1815.76,81.59 	"/>
	<polygon points="1772.21,96.02 1771.63,94.97 1771.09,96.02 	"/>
	<polygon points="1827.97,82.47 1824.13,89.45 1824.51,90.2 1824.41,90.2 1824.08,89.53 1821.16,94.84 1821.73,96.02 1824.25,96.02 
		1829.76,86.01 	"/>
	<polygon points="1773.44,91.48 1771.63,94.97 1772.21,96.02 1773,96.02 1774.42,93.25 	"/>
	<polygon points="1784.41,70.28 1782.61,73.76 1783.57,75.48 1785.37,72 	"/>
	<polygon points="1819.85,80.95 1823.68,73.96 1821.89,70.42 1818.06,77.41 	"/>
	<polygon points="1815.76,81.59 1815.17,82.67 1816.96,86.22 1819.5,81.59 	"/>
	<polygon class="st6" points="1813.33,122.36 1813.33,122.61 1813.47,122.36 	"/>
	<path d="M1783.99,88.22"/>
	<g>
		<polygon points="1813.07,93.31 1803.37,111 1790.28,87.52 1787.7,92.55 1785.88,96.02 1781.49,96.02 1780.38,96.02 
			1778.24,100.18 1796.72,133.66 1798.25,136.5 1799.77,133.66 1817.28,101.87 		"/>
		<polygon points="1790.28,87.49 1790.26,87.48 1789.13,85.06 1786.27,85.06 1786.22,85.03 1780.38,95.99 1785.88,95.99 
			1790.27,87.51 1790.28,87.52 1790.27,87.51 		"/>
	</g>
	<polygon points="1807.31,30.04 1802.85,21.5 1798.17,30.04 1782.61,60.32 1786.22,66.79 1797.11,45.74 1803.36,33.68 
		1809.47,45.79 1820.1,66.87 1823.09,61.42 	"/>
</g>
<g>
	<polygon class="st5" points="147.3,65.84 144.37,71.16 147.3,77 	"/>
	<polygon class="st5" points="109.32,91.48 114.84,81.41 103.71,81.41 	"/>
	<polygon class="st5" points="61.1,93.5 68.47,79.15 61.1,65.79 	"/>
	<polygon class="st5" points="103.66,56.54 97.01,69.39 100.46,75.59 113.27,75.59 	"/>
	<path class="st5" d="M125.76,116.1c4.87-0.2,6.26-0.85,6.28-0.85c0,0,0,0,0,0c0,0,0.01-0.01,0.01-0.01
		c-0.09-0.8-0.59-3.06-3.11-8.06l-2.11-4.18l-7.36,13.35L125.76,116.1z"/>
	<path d="M154.05,40.03v50.4l6.1,12.12c4.18,8.3,6.78,10.75,7.71,11.42c1.05,0.76,2.5,1.3,4.27,1.66c-0.23-1.69-0.34-3.69-0.34-6.02
		V41.56c0-5.84,0.68-9.58,2.03-11.21c2.21-2.66,6-3.99,11.35-3.99h4.34v-2.84h-35.45L136.5,55.52l4.3,8.55L154.05,40.03z"/>
	<path d="M54.35,106.37V40.03l17.72,32.11l9.1-17.72L63.95,23.51H28.5v2.84c5.11,0,8.82,0.5,11.13,1.5c2.31,1,3.89,2.24,4.75,3.73
		c1.23,2.05,1.85,5.38,1.85,9.99v68.05c0,2.2-0.1,4.1-0.29,5.71c1.48-0.37,2.11-0.66,2.26-0.74
		C49.28,113.71,51.35,111.53,54.35,106.37z"/>
	<polygon points="122.27,67.86 109.28,42.11 106.47,47.53 119.38,73.12 	"/>
	<path d="M63.12,103.94c-0.69,1.35-1.36,2.59-2.02,3.78v1.89c0,5.65,0.71,7.71,0.95,8.24c1,0.74,2.96,1.15,5.6,1.15h1.82
		c-1.31-1.07-2-2.27-2-3.62c0-2,1.04-5.02,3.14-9.06l3.9-7.55l2.31-4.51l-4.52-8.19L63.12,103.94z"/>
	<path d="M146.42,117.57c0.17-0.36,0.88-2.25,0.88-7.95V91.63l-6.78-13.48l-2.99,5.43l3.17,6.44h-6.72l-3.3,5.99l1.36,2.77
		l3.08,6.09c2.46,4.87,3.69,8.42,3.69,10.68c0,1.31-0.55,2.46-1.6,3.47h3.54C142.75,119,145.32,118.76,146.42,117.57z"/>
	<path d="M126.08,121.91v2.84h3.5v-3.1C128.51,121.77,127.35,121.86,126.08,121.91z"/>
	<path d="M81.95,124.75v-2.84c-1.12-0.07-2.15-0.15-3.13-0.25v3.09H81.95z"/>
	<polygon points="132.36,73.27 133.97,76.47 136.96,71.06 132.66,62.52 129.68,67.96 	"/>
	<path d="M154.05,105.04v4.57c0,5.84-0.68,9.58-2.03,11.21c-2.01,2.49-5.48,3.77-10.29,3.93h33.74v-2.36
		c-0.26-0.18-0.54-0.36-0.78-0.56c-4.72-0.33-8.47-1.45-11.18-3.42C160.68,116.36,157.52,111.9,154.05,105.04z"/>
	<path d="M54.88,116.84c-0.75,0.82-1.48,1.52-2.19,2.08c-1.48,1.18-4.71,2.14-9.6,2.9c-0.19,0.16-0.35,0.35-0.56,0.5v2.44h24
		c-4.33-0.16-7.59-1.18-9.69-3.16C55.94,120.73,55.29,119.13,54.88,116.84z"/>
	<polygon points="126.17,75.59 125.85,74.95 125.5,75.59 	"/>
	<polygon points="130.08,83.53 130.13,83.45 126.17,75.6 	"/>
	<polygon points="79.44,85.48 81.33,81.83 88.61,67.76 85.02,61.31 75.9,79.06 	"/>
	<polygon points="127.89,64.42 130.88,58.97 129.09,55.42 126.1,60.87 	"/>
	<path d="M62.05,117.86c-0.24-0.53-0.95-2.59-0.95-8.24v-1.89c-1.12,2-2.21,3.79-3.26,5.33c0.33,5.24,1.37,6.47,1.51,6.6
		c1.59,1.5,4.38,2.27,8.3,2.27h7.8v2.84h3.37v-3.09c-4.27-0.42-7.17-1.11-8.64-2.09c-0.27-0.18-0.49-0.38-0.72-0.57h-1.82
		C65.01,119,63.04,118.6,62.05,117.86z"/>
	<polygon points="92.22,60.79 88.61,54.32 86.81,57.82 90.41,64.28 	"/>
	<polygon points="130.41,90.02 130.25,90.02 128.92,92.42 130.68,96 133.98,90.02 	"/>
	<polygon points="120.63,75.59 121.76,75.59 124.06,71.41 122.27,67.86 119.38,73.12 	"/>
	<path d="M140.76,121.91c4.22,0,7-0.9,8.5-2.75c0.25-0.31,1.42-2.1,1.42-9.55V98.34l-3.38-6.71v17.99c0,5.71-0.71,7.59-0.88,7.95
		c-1.1,1.19-3.67,1.44-5.67,1.44h-3.54c-0.3,0.29-0.64,0.57-1.03,0.83c-1.31,0.88-3.51,1.48-6.61,1.82v3.1h3.38v-2.84H140.76z"/>
	<polygon points="77.09,90.02 77.63,88.97 74.1,82.57 72.29,86.08 76.81,94.26 78.61,90.76 78.21,90.02 	"/>
	<polygon points="135.76,80.01 136.46,81.41 136.7,81.88 137.53,83.57 140.52,78.15 138.74,74.6 	"/>
	<path d="M67.64,121.91c-3.92,0-6.71-0.77-8.3-2.27c-0.14-0.13-1.18-1.36-1.51-6.6c-1.02,1.48-2,2.74-2.96,3.79
		c0.41,2.29,1.06,3.89,1.97,4.76c2.09,1.98,5.36,3,9.69,3.16h8.92v-2.84H67.64z"/>
	<polygon points="127.73,90.02 128.92,92.42 130.25,90.02 	"/>
	<polygon points="78.61,90.76 79,90.02 78.21,90.02 	"/>
	<polygon points="125.5,75.59 125.85,74.95 124.06,71.41 121.76,75.59 	"/>
	<path d="M152.02,120.83c1.35-1.64,2.03-5.38,2.03-11.21v-4.57c-0.03-0.06-0.06-0.12-0.09-0.18l-3.28-6.52v11.27
		c0,7.45-1.17,9.24-1.42,9.55c-1.5,1.85-4.27,2.75-8.5,2.75h-7.8v2.84h8.78C146.54,124.59,150.01,123.31,152.02,120.83z"/>
	<polygon points="130.41,84.2 130.51,84.2 130.13,83.45 130.08,83.53 	"/>
	<path d="M42.53,121.91v0.4c0.21-0.15,0.37-0.34,0.56-0.5C42.89,121.85,42.74,121.88,42.53,121.91z"/>
	<polygon points="74.1,82.57 77.63,88.97 79.44,85.48 75.9,79.06 	"/>
	<polygon points="90.41,64.28 86.81,57.82 85.02,61.31 88.61,67.76 	"/>
	<polygon points="135.76,80.01 138.74,74.6 136.96,71.06 133.97,76.47 	"/>
	<path d="M175.47,121.91c-0.27-0.01-0.51-0.06-0.78-0.08c0.24,0.2,0.51,0.38,0.78,0.56V121.91z"/>
	<polygon points="129.68,67.96 132.66,62.52 130.88,58.97 127.89,64.42 	"/>
	<polygon points="140.7,90.02 137.53,83.57 133.98,90.02 	"/>
	<polygon points="103.74,42.11 106.47,47.53 109.28,42.11 122.27,67.86 126.1,60.87 115.47,39.79 109.36,27.68 103.11,39.74 
		92.22,60.79 93.18,62.51 	"/>
	<polygon points="81.33,81.83 79.44,85.48 80.42,87.25 81.98,84.2 81.95,84.2 89.57,69.48 88.61,67.76 	"/>
	<polygon points="126.17,75.59 125.5,75.59 122.96,80.22 124.97,84.2 124.87,84.2 127.16,88.84 130.08,83.53 126.17,75.6 	"/>
	<polygon points="126.17,75.59 126.17,75.6 130.13,83.45 133.97,76.47 132.36,73.27 129.68,67.96 125.85,74.95 	"/>
	<polygon points="93.18,62.51 92.22,60.79 90.41,64.28 91.37,66 	"/>
	<polygon points="124.06,71.41 127.89,64.42 126.1,60.87 122.27,67.86 	"/>
	<polygon points="136.46,81.41 135.76,80.01 130.25,90.02 130.41,90.02 133.98,90.02 137.53,83.57 136.7,81.88 	"/>
	<polygon points="120.63,75.59 121.17,76.67 121.76,75.59 	"/>
	<polygon points="78.21,90.02 77.63,88.97 77.09,90.02 	"/>
	<polygon points="133.97,76.47 130.13,83.45 130.51,84.2 130.41,84.2 130.08,83.53 127.16,88.84 127.73,90.02 130.25,90.02 
		135.76,80.01 	"/>
	<polygon points="79.44,85.48 77.63,88.97 78.21,90.02 79,90.02 80.42,87.25 	"/>
	<polygon points="90.41,64.28 88.61,67.76 89.57,69.48 91.37,66 	"/>
	<polygon points="125.85,74.95 129.68,67.96 127.89,64.42 124.06,71.41 	"/>
	<polygon points="121.76,75.59 121.17,76.67 122.96,80.22 125.5,75.59 	"/>
	<polygon class="st6" points="119.33,116.36 119.33,116.61 119.47,116.36 	"/>
	<path d="M89.99,82.22"/>
	<g>
		<polygon points="119.07,87.31 109.37,105 96.28,81.52 93.7,86.55 91.88,90.02 87.49,90.02 86.38,90.02 84.24,94.18 102.72,127.66 
			104.25,130.5 105.77,127.66 123.28,95.87 		"/>
		<polygon points="96.28,81.49 96.26,81.48 95.13,79.06 92.27,79.06 92.22,79.03 86.38,89.99 91.88,89.99 96.27,81.51 96.28,81.52 
			96.27,81.51 		"/>
	</g>
	<polygon points="113.31,24.04 108.85,15.5 104.17,24.04 88.61,54.32 92.22,60.79 103.11,39.74 109.36,27.68 115.47,39.79 
		126.1,60.87 129.09,55.42 	"/>
</g>
<rect x="97.5" y="298.5" class="st7" width="473" height="582"/>
<rect x="731.5" y="298.5" class="st7" width="473" height="582"/>
<rect x="1366.5" y="298.5" class="st7" width="473" height="582"/>
<rect x="154.5" y="340.5" class="st8" width="350" height="318"/>
<rect x="779.5" y="340.5" class="st8" width="365" height="318"/>
<rect x="1420.5" y="340.5" class="st8" width="365" height="318"/>
<text transform="matrix(1 0 0 1 174.5332 700.333)" class="st3 st9">LINCON NAVIGATOR</text>
<text transform="matrix(1 0 0 1 796.55 700.8573)" class="st3 st9">CHEVROLET CHEYENE</text>
<text transform="matrix(1 0 0 1 1467.4954 699.8572)" class="st3 st9">FORD EXPEDITION</text>
<text transform="matrix(1 0 0 1 1468.4668 747.9336)"><tspan x="0" y="0" class="st3 st9">se utiliza normalmente</tspan><tspan x="0" y="38.4" class="st3 st9">para traslados foraneos</tspan></text>
<text transform="matrix(1 0 0 1 828.5356 747.6571)"><tspan x="0" y="0" class="st3 st9">se utiliza normalmente</tspan><tspan x="0" y="38.4" class="st3 st9">para sepultura </tspan></text>
<text transform="matrix(1 0 0 1 175.5356 748.6571)"><tspan x="0" y="0" class="st3 st9">se utiliza normalmente</tspan><tspan x="0" y="38.4" class="st3 st9">para traslados foraneos</tspan><tspan x="0" y="76.8" class="st3 st9">y sepultura</tspan></text>
<rect y="957" class="st10" width="1603" height="123"/>
<text transform="matrix(1 0 0 1 28.0669 1018.7998)"><tspan x="0" y="0" class="st3 st11">TODOS LOS SERVICIOS  INCLUYEN UNA CARROZA</tspan><tspan x="0" y="36" class="st3 st11"> EL CLIENTE PUEDE ELJIR LA QUE MAS LE GUSTE Y SI ESTA DISPONIBLE  </tspan></text>
<rect x="1637" y="957" class="st10" width="290" height="123"/>
<text transform="matrix(1 0 0 1 1709.333 1034.0664)" class="st3 st11"><a href="index.svg">REGRESAR</a></text>
</svg>
